<svg xmlns="http://www.w3.org/2000/svg" version="1.1" xmlns:xlink="http://www.w3.org/1999/xlink" xmlns:svgjs="http://svgjs.com/svgjs" width="15" height="15" x="0" y="0" viewBox="0 0 512 512" style="enable-background:new 0 0 512 512" xml:space="preserve" class=""><g><g data-name="Layer 2"><circle cx="256" cy="256" r="256" fill="#1d6a93" data-original="#00a1f5" class="" opacity="1"></circle><path fill="#ffffff" d="M366 146a155.6 155.6 0 1 0 45.57 110A154.61 154.61 0 0 0 366 146zm-1.77 47.34h-34.89a208.18 208.18 0 0 0-13.89-42.92c-.94-2.06-1.91-4.05-2.91-6a126 126 0 0 1 51.71 48.9zM381.12 256a124.93 124.93 0 0 1-4.21 32.21h-42.8a319.06 319.06 0 0 0 0-64.42h42.8a124.93 124.93 0 0 1 4.21 32.21zm-250.24 0a124.93 124.93 0 0 1 4.21-32.21h42.8a319.06 319.06 0 0 0 0 64.42h-42.8a124.93 124.93 0 0 1-4.21-32.21zm75.85 0a288.4 288.4 0 0 1 1.78-32.21h95a292.32 292.32 0 0 1 0 64.42h-95a288.4 288.4 0 0 1-1.78-32.21zM256 130.88c10.62 0 22.49 12.05 31.77 32.24a170.78 170.78 0 0 1 10.33 30.2h-84.2a170.78 170.78 0 0 1 10.33-30.2c9.28-20.19 21.15-32.24 31.77-32.24zm-56.54 13.53c-1 1.94-2 3.93-2.91 6a208.18 208.18 0 0 0-13.89 42.92h-34.91a126 126 0 0 1 51.71-48.92zm-51.71 174.27h34.91a208.47 208.47 0 0 0 13.89 42.93q1.41 3.08 2.91 6a126 126 0 0 1-51.71-48.93zM256 381.12c-10.62 0-22.49-12.05-31.77-32.24a170.78 170.78 0 0 1-10.33-30.2h84.2a170.78 170.78 0 0 1-10.33 30.2c-9.28 20.19-21.15 32.24-31.77 32.24zm56.54-13.53c1-1.94 2-3.93 2.91-6a208.37 208.37 0 0 0 13.89-42.92h34.91a126 126 0 0 1-51.71 48.92z" data-original="#ffffff"></path></g></g></svg>